<svg version="1.1" viewBox="0 0 48 48" xmlns="http://www.w3.org/2000/svg">
<defs>
<linearGradient id="b" x1="160.01" x2="100.01" y1="40.008" y2="180" gradientUnits="userSpaceOnUse">
<stop stop-color="#37aee2" offset="0"/>
<stop stop-color="#1e96c8" offset="1"/>
</linearGradient>
</defs>
<path id="path16" d="m18.054 41.691c-1.43 0-1.187-0.53995-1.6802-1.9015l-4.2052-13.84 32.37-19.203" fill="#8ad0ee" fill-opacity=".43742" stroke-width=".36784"/>
<path id="path18" d="m46.164 3.8848c-0.43722-0.048841-0.91882 0.031546-1.4043 0.25195l-42.52 16.395c-2.9023 1.1641-2.8837 2.7844-0.52734 3.5059l10.91 3.4043 25.26-15.936c1.1925-0.72313 2.287-0.33436 1.3887 0.46289l-20.465 18.469h-0.001953v0.001953l-0.75 11.252c1.1035 0 1.5911-0.50468 2.207-1.1035l5.3008-5.1562 11.031 8.1504c2.0299 1.12 3.4944 0.53998 4-1.8848l7.2402-34.123c0.556-2.2291-0.35827-3.5429-1.6699-3.6895z" fill="url(#b)" style="font-variant-east_asian:normal"/>
</svg>
