<svg width="1361.9" height="957.89" version="1.1" viewBox="0 0 1361.9333 957.89331" xml:space="preserve" xmlns="http://www.w3.org/2000/svg" xmlns:xlink="http://www.w3.org/1999/xlink"><defs><linearGradient id="linearGradient38-6-6" x2="1" gradientTransform="matrix(-3.14e-5,-718.42,-718.42,3.14e-5,510.72,718.42)" gradientUnits="userSpaceOnUse"><stop stop-color="#e62426" offset="0"/><stop stop-color="#c01e25" offset="1"/></linearGradient><linearGradient id="linearGradient992" x2="1" gradientTransform="matrix(4.1797e-5 958.75 956.3 -4.1904e-5 681.2 -.23092)" gradientUnits="userSpaceOnUse" xlink:href="#linearGradient38-6-6"/><linearGradient id="linearGradient995" x2="1" gradientTransform="matrix(4.1866e-5 957.87 957.87 -4.1866e-5 681.41 .020398)" gradientUnits="userSpaceOnUse" xlink:href="#linearGradient38-6-6"/></defs><path id="path980" d="m622.91-0.0092156c-22.389-0.033524-322.47 0.87948-436.86 14.422-114.39 13.542-132.35 46.976-158.35 133.75-26.005 86.777-27.688 278.45-27.688 306.52v48.323c0 30.439-0.77523 220.84 27.688 306.52 28.463 85.674 45.38 119.7 158.35 133.75 112.97 14.054 419.01 14.702 437.24 14.617 18.235-0.0846 134.52-0.62381 153.45-0.71159 18.93-0.0878 291.4-0.5005 399.15-13.906s129.89-48.08 158.35-133.75c28.463-85.674 27.688-276.08 27.688-306.52v-48.323c0-28.067-1.6829-219.74-27.688-306.52-26.005-86.777-49.256-120.84-158.35-133.75-109.1-12.916-377.28-14.159-400.22-14.193-22.946-0.034359-130.37-0.19521-152.76-0.22873z" fill="url(#linearGradient992)" stroke-width="1.3328"/><path id="path842-3-1" d="m641.06 957.88c-320.53 0.01 320.53-0.01 0 0z" fill="url(#linearGradient995)" stroke-width="1.3333"/><path id="path14" d="m540.28 655.6 367.99-190.66-367.99-192v382.66" fill="#fff" stroke-width="1.3333"/><path id="path18" d="m862.97 488.42-322.69-215.47 367.99 192-45.311 23.477" fill="#eae0e1" stroke-width="1.3333"/></svg>
