<svg width="32" height="28" version="1.1" viewBox="0 0 8.4666671 7.4083331" xmlns="http://www.w3.org/2000/svg" xmlns:cc="http://creativecommons.org/ns#" xmlns:dc="http://purl.org/dc/elements/1.1/" xmlns:rdf="http://www.w3.org/1999/02/22-rdf-syntax-ns#">
<title>Map</title>
<metadata>
<rdf:RDF>
<cc:Work rdf:about="">
<dc:format>image/svg+xml</dc:format>
<dc:type rdf:resource="http://purl.org/dc/dcmitype/StillImage"/>
<dc:title>Map</dc:title>
<cc:license rdf:resource="http://scripts.sil.org/OFL"/>
<dc:creator>
<cc:Agent>
<dc:title>Dave Gandy</dc:title>
</cc:Agent>
</dc:creator>
<dc:publisher>
<cc:Agent>
<dc:title>Font Awesome by Dave Gandy - http://fontawesome.io</dc:title>
</cc:Agent>
</dc:publisher>
</cc:Work>
<cc:License rdf:about="http://scripts.sil.org/OFL">
<cc:permits rdf:resource="http://scripts.sil.org/pub/OFL/Reproduction"/>
<cc:permits rdf:resource="http://scripts.sil.org/pub/OFL/Distribution"/>
<cc:permits rdf:resource="http://scripts.sil.org/pub/OFL/Embedding"/>
<cc:permits rdf:resource="http://scripts.sil.org/pub/OFL/DerivativeWorks"/>
<cc:requires rdf:resource="http://scripts.sil.org/pub/OFL/Notice"/>
<cc:requires rdf:resource="http://scripts.sil.org/pub/OFL/Attribution"/>
<cc:requires rdf:resource="http://scripts.sil.org/pub/OFL/ShareAlike"/>
<cc:requires rdf:resource="http://scripts.sil.org/pub/OFL/DerivativeRenaming"/>
<cc:requires rdf:resource="http://scripts.sil.org/pub/OFL/BundlingWhenSelling"/>
</cc:License>
</rdf:RDF>
</metadata>
<g transform="translate(-59.532 -163.94)">
<path id="path7508" d="m67.469 169.85-2.249 0.89685v-5.2489l2.249-0.89686zm-7.4083-4.4058 2.249-0.89686v5.2489l-2.249 0.89686zm2.5135-0.89686 2.3812 0.95059v5.2489l-2.3812-0.95058zm5.3082-0.55795c-0.07441-0.0496-0.16536-0.0579-0.24805-0.0248l-2.5466 1.0167-2.5466-1.0167c-0.06614-0.0289-0.13229-0.0289-0.19844 0l-2.6458 1.058c-0.09922 0.0372-0.16536 0.13639-0.16536 0.24385v5.8192c0 0.0868 0.04547 0.16945 0.11576 0.21905 0.04547 0.0289 0.09508 0.0455 0.14883 0.0455 0.03307 0 0.06615-4e-3 0.09922-0.0207l2.5466-1.0167 2.5466 1.0167c0.06615 0.0289 0.13229 0.0289 0.19844 0l2.6458-1.058c0.09922-0.0372 0.16536-0.13639 0.16536-0.24385v-5.8192c0-0.0868-0.04548-0.16945-0.11576-0.21904z" fill="#fff"/>
</g>
</svg>
